<svg width="96" height="96" viewBox="0 0 96 96" fill="none" xmlns="http://www.w3.org/2000/svg">
<g clip-path="url(#clip0_1592_1653)">
<path d="M78.5 84H17.5C14.47 84 12 81.53 12 78.5V17.5C12 14.47 14.47 12 17.5 12H60C60.83 12 61.5 12.67 61.5 13.5C61.5 14.33 60.83 15 60 15H17.5C16.12 15 15 16.12 15 17.5V78.5C15 79.88 16.12 81 17.5 81H78.5C79.88 81 81 79.88 81 78.5V36C81 35.17 81.67 34.5 82.5 34.5C83.33 34.5 84 35.17 84 36V78.5C84 81.53 81.53 84 78.5 84Z" fill="#000056"/>
<path d="M84 12H68L84 28V12Z" fill="#E61F2A"/>
<path d="M54.09 43.55C53.71 43.55 53.32 43.4001 53.03 43.1101C52.44 42.5201 52.44 41.57 53.03 40.99L76.84 17.18C77.43 16.59 78.38 16.59 78.96 17.18C79.54 17.77 79.55 18.72 78.96 19.3L55.15 43.1101C54.86 43.4001 54.47 43.55 54.09 43.55Z" fill="#E61F2A"/>
</g>
<defs>
<clipPath id="clip0_1592_1653">
<rect width="72" height="72" fill="white" transform="translate(12 12)"/>
</clipPath>
</defs>
</svg>
