<svg width="96" height="96" viewBox="0 0 96 96" fill="none" xmlns="http://www.w3.org/2000/svg">
<g clip-path="url(#clip0_1260_1363)">
<path d="M24.9369 57.2386L61.4736 20.7019" stroke="#222160" stroke-width="2.34" stroke-miterlimit="10"/>
<path d="M25.0535 20.6436L61.5222 57.122" stroke="#222160" stroke-width="2.34" stroke-miterlimit="10"/>
<path d="M52.3225 48.0874C42.229 58.1809 29.9788 62.2804 24.9563 57.258C19.9339 52.2355 24.0432 39.9854 34.1269 29.8919C44.2204 19.7984 56.4706 15.6988 61.4931 20.7213C66.5155 25.7437 62.4062 37.9939 52.3225 48.0874Z" stroke="#222160" stroke-width="2.34" stroke-miterlimit="10"/>
<path d="M61.4371 57.1987C71.5287 47.1072 71.544 30.761 61.4715 20.6885C51.399 10.6159 35.0528 10.6313 24.9613 20.7228C14.8697 30.8143 14.8544 47.1605 24.9269 57.2331C34.9994 67.3056 51.3456 67.2902 61.4371 57.1987Z" stroke="#222160" stroke-width="2.34" stroke-miterlimit="10"/>
<path d="M68.4292 13.7366C82.3406 27.6479 82.3212 50.215 68.3807 64.1458C54.4499 78.0766 31.8731 78.096 17.9714 64.1944" stroke="#222160" stroke-width="2.34" stroke-miterlimit="10"/>
<path d="M35.1178 83.0892H52.6041H52.643V73.3357" stroke="#222160" stroke-width="2.34" stroke-miterlimit="10"/>
<path d="M62.9599 81.7097H60.813V83.9829H62.9599V81.7097Z" fill="#E61E2A"/>
<path d="M58.6758 81.7097H56.3734V83.9829H58.6758V81.7097Z" fill="#E61E2A"/>
<path d="M65.1147 81.723L65.0894 83.9961L67.3916 84.0218L67.417 81.7487L65.1147 81.723Z" fill="#E61E2A"/>
</g>
<defs>
<clipPath id="clip0_1260_1363">
<rect width="96" height="96" fill="white"/>
</clipPath>
</defs>
</svg>
