<svg width="26" height="26" viewBox="0 0 26 26" fill="none" xmlns="http://www.w3.org/2000/svg">
<path d="M26 24.7152L18.2522 17.0455C21.8 12.7856 21.3825 6.47376 17.3048 2.72326C13.2271 -1.02725 6.93433 -0.887297 3.02572 3.04082C-0.88289 6.96895 -1.02215 13.2932 2.70973 17.3912C6.44161 21.4893 12.7221 21.9088 16.9609 18.3433L24.7087 26L26 24.7152ZM10.5044 18.9403C5.84741 18.9403 2.07218 15.1462 2.07218 10.466C2.07218 5.78575 5.84741 1.99168 10.5044 1.99168C15.1614 1.99168 18.9366 5.78575 18.9366 10.466C18.9332 12.7282 18.0313 14.8955 16.4312 16.4867C14.831 18.0778 12.6649 18.961 10.414 18.9403H10.5044Z" fill="white"/>
</svg>
