<svg width="101" height="35" viewBox="0 0 101 35" fill="none" xmlns="http://www.w3.org/2000/svg">
<path d="M12.0337 0H8.95719V2.49757H3.84853V7.69705H0V15.3373H3.84853V20.5482H8.96854V23.0344H11.6818C18.0165 23.0344 23.5907 17.9257 23.5907 11.5456C23.5907 5.16542 18.3798 0 12.0337 0Z" fill="#E61E2A"/>
<path d="M80.2628 2.2024H82.9193V1.22607H73.6556V2.2024H76.3348V20.832H73.6556V21.7969H82.9193V20.832H80.2628V2.2024Z" fill="white"/>
<path d="M97.1214 21.7969V20.832H94.2832V1.99805C98.6199 1.78235 99.3578 2.71326 99.9141 6.65261H100.868L100.527 1.22607H84.0432L83.7026 6.65261H84.6789C85.2352 2.71326 85.9731 1.78235 90.3212 1.99805V20.832H87.483V21.7969H97.1214Z" fill="white"/>
<path d="M35.0227 10.047V2.19104H37.7019C40.4493 2.19104 41.4596 2.88355 41.4596 6.34609C41.4596 9.10476 40.3244 10.047 37.543 10.047H35.0227ZM71.8959 2.19104V1.22607H64.301L59.8395 15.3033L55.5368 1.22607H47.976V2.19104H50.6325V20.832H47.7603C45.0925 20.9001 45.0471 18.6182 45.0584 18.1528C45.0925 13.1349 43.9799 11.3072 39.1664 10.5692V10.5011C42.0386 10.1946 45.7055 9.37723 45.7055 5.90334C45.7055 1.62341 41.7094 1.22607 38.3377 1.22607H28.4155V2.19104H31.072V20.832H28.4155V21.7969H37.6679V20.832H35.0114V11.0006C36.7143 10.9325 38.6442 11.3639 39.507 12.1132C40.313 12.7944 40.7444 14.9059 40.7444 17.4489C40.7444 20.5936 42.3679 21.7856 45.4898 21.7856H54.4129V20.8206H51.8132V2.50892H51.8813L58.0117 21.7969H59.0561L65.2092 2.50892H65.3001V20.832H62.6549V21.7969H71.8959V20.832H69.2394V2.19104H71.8959Z" fill="white"/>
<path d="M31.072 28.0295C31.072 27.8592 30.9812 27.7798 30.8223 27.7798H30.3341V26.7921H31.4921C32.0029 26.7921 32.2186 27.0078 32.2186 27.53V31.9916C32.2186 33.2063 32.9793 33.9215 34.1486 33.9215C35.3179 33.9215 36.0785 33.1949 36.0785 31.9802V27.5186C36.0785 27.0078 36.3056 26.7807 36.8164 26.7807H37.9631V27.7684H37.4749C37.316 27.7684 37.2251 27.8479 37.2251 28.0182V32.0256C37.2251 33.7853 35.9991 34.9886 34.1599 34.9886C32.3208 34.9886 31.072 33.7853 31.072 32.0256V28.0182V28.0295Z" fill="white"/>
<path d="M38.735 33.8761H39.2232C39.3821 33.8761 39.4729 33.7853 39.4729 33.6263V26.7921H40.5174L44.1048 31.9007C44.4 32.3321 44.7746 33.0019 44.7746 33.0019H44.7973C44.7973 33.0019 44.7178 32.3662 44.7178 31.9007V27.53C44.7178 27.0191 44.9335 26.8034 45.4557 26.8034H46.6024V27.7798H46.1142C45.9553 27.7798 45.8644 27.8592 45.8644 28.0295V34.8638H44.8314L41.2326 29.7551C40.9374 29.3237 40.5741 28.6539 40.5741 28.6539H40.5514C40.5514 28.6539 40.6195 29.301 40.6195 29.7551V34.1258C40.6195 34.6367 40.4038 34.8524 39.893 34.8524H38.735V33.8647V33.8761Z" fill="white"/>
<path d="M47.8511 33.8761H48.6345V27.7798H47.8511V26.7921H50.519V27.7798H49.7243V33.8761H50.519V34.8638H47.8511V33.8761Z" fill="white"/>
<path d="M51.7564 28.0295C51.6883 27.8252 51.5748 27.7798 51.3818 27.7798H51.2229V26.7921H51.8586C52.4262 26.7921 52.6306 26.917 52.8009 27.4505L54.5719 32.423C54.7195 32.8544 54.8784 33.5355 54.8784 33.5355H54.9011C54.9011 33.5355 55.0487 32.8657 55.2076 32.423L56.9786 27.4505C57.1716 26.917 57.3533 26.7921 57.9209 26.7921H58.5566V27.7798H58.3977C58.1933 27.7798 58.0912 27.8252 58.0231 28.0295L55.4801 34.8638H54.2767L51.7337 28.0295H51.7564Z" fill="white"/>
<path d="M59.9871 27.7798H59.2491V26.8034H63.9945C64.5054 26.8034 64.7211 27.0191 64.7211 27.53V28.5517H63.6767V28.0409C63.6767 27.8706 63.5858 27.7911 63.4269 27.7911H61.1337V30.3227H63.9605V31.2991H61.1337V33.6377C61.1337 33.7966 61.2245 33.8874 61.3834 33.8874H63.7334C63.8923 33.8874 63.9832 33.7966 63.9832 33.6377V33.1268H65.039V34.1486C65.039 34.6594 64.8233 34.8751 64.3124 34.8751H60.725C60.2141 34.8751 59.9984 34.6594 59.9984 34.1486V27.7911L59.9871 27.7798Z" fill="white"/>
<path d="M66.6397 27.7798H65.9017V26.8034H69.421C70.8401 26.8034 71.8278 27.6889 71.8278 29.1648C71.8278 30.5157 70.9423 31.1742 70.3747 31.2991V31.3218C70.3747 31.3218 70.579 31.4239 70.7152 31.685L71.6916 33.615C71.8051 33.8534 71.9867 33.8761 72.2592 33.8761H72.4068V34.8524H71.8391C71.2147 34.8524 70.9877 34.7729 70.7152 34.2507L69.614 32.0824C69.4097 31.7077 69.2621 31.651 68.808 31.651H67.7522V34.8638H66.6056V27.7798H66.6397ZM69.2735 30.6747C70.1363 30.6747 70.6585 30.1184 70.6585 29.2102C70.6585 28.302 70.1476 27.7798 69.2962 27.7798H67.7863V30.6747H69.2735Z" fill="white"/>
<path d="M73.8713 32.9906C73.8713 32.9906 74.6887 33.9669 75.892 33.9669C76.6526 33.9669 77.277 33.5128 77.277 32.7635C77.277 31.072 73.3831 31.3331 73.3831 28.8242C73.3831 27.6095 74.4502 26.6672 75.9715 26.6672C76.8343 26.6672 78.2647 27.0532 78.2647 28.1544V28.8128H77.2089V28.4382C77.2089 28.0182 76.6072 27.7003 75.9601 27.7003C75.086 27.7003 74.5411 28.1771 74.5411 28.7901C74.5411 30.4249 78.4237 30.0616 78.4237 32.7068C78.4237 33.9442 77.4587 35 75.8693 35C74.1551 35 73.2015 33.7966 73.2015 33.7966L73.8713 32.9792V32.9906Z" fill="white"/>
<path d="M79.6384 33.8761H80.4217V27.7798H79.6384V26.7921H82.2949V27.7798H81.5115V33.8761H82.2949V34.8638H79.6384V33.8761Z" fill="white"/>
<path d="M85.9277 27.7798H84.3043C84.1454 27.7798 84.0545 27.8592 84.0545 28.0295V28.5404H83.0328V27.4732C83.0328 26.9624 83.2031 26.7921 83.714 26.7921H89.2654C89.7762 26.7921 89.9465 26.9624 89.9465 27.4732V28.5404H88.9362V28.0295C88.9362 27.8592 88.8453 27.7798 88.6864 27.7798H87.063V34.8638H85.9164V27.7798H85.9277Z" fill="white"/>
<path d="M93.2274 31.3445L91.1839 28.0636C91.0364 27.8252 90.9342 27.7798 90.6958 27.7798H90.4687V26.8034H90.991C91.5359 26.8034 91.7629 26.8829 92.0808 27.4165L93.3069 29.4486C93.568 29.8913 93.795 30.3568 93.795 30.3568H93.8177C93.8177 30.3568 94.0334 29.9027 94.3059 29.4486L95.5206 27.4165C95.8385 26.8829 96.0656 26.8034 96.5991 26.8034H97.1214V27.7798H96.9057C96.6673 27.7798 96.5537 27.8252 96.4061 28.0636L94.374 31.3445V34.8638H93.2274V31.3445Z" fill="white"/>
</svg>
