<svg width="177" height="104" viewBox="0 0 177 104" fill="none" xmlns="http://www.w3.org/2000/svg">
<g id="Logo" clip-path="url(#clip0_571_1651)">
<path id="Vector" d="M0 0H68.7163V36.0738H0V0Z" fill="#222160"/>
<path id="Vector_2" d="M0 42.7825H176.699V78.78H0V42.7825Z" fill="#E61E2A"/>
<path id="Vector_3" d="M0 87.0486H16.9609V104.011H0V87.0486Z" fill="#FDE092"/>
<path id="Vector_4" d="M51.4608 87.0486H68.4217V104.011H51.4608V87.0486Z" fill="#FAC90E"/>
<path id="Vector_5" d="M25.7305 87.0486H42.6914V104.011H25.7305V87.0486Z" fill="#FCD45D"/>
<g id="Group">
<path id="Vector_6" d="M12.0962 57.6504H10.0129V55.1852H12.1617V50.7891H15.1721V55.1852H19.0006V57.6504H15.1612V64.9917C15.1612 68.1879 17.3754 68.6024 18.5425 68.6024C18.9897 68.6024 19.2733 68.5369 19.2733 68.5369V71.2531C19.2733 71.2531 18.8588 71.3186 18.1934 71.3186C16.1647 71.3186 12.0853 70.6859 12.0853 65.3408V57.6504H12.0962ZM22.7527 52.1745C22.7527 51.7054 22.5019 51.4763 22.0546 51.4763H20.7567V48.8474H23.7889C25.2178 48.8474 25.8177 49.4474 25.8177 50.8109V57.0396C25.8177 57.8032 25.7522 58.3704 25.7522 58.3704H25.8177C26.5158 56.8214 28.5663 54.7925 31.7622 54.7925C35.5252 54.7925 37.2377 56.8432 37.2377 60.9338V67.8606C37.2377 68.3406 37.4885 68.5588 37.9357 68.5588H39.2337V71.1877H36.2233C34.7944 71.1877 34.1945 70.5877 34.1945 69.1587V61.632C34.1945 59.3849 33.7146 57.6177 31.1623 57.6177C28.7299 57.6177 26.7666 59.2649 26.1013 61.5774C25.8831 62.2101 25.8177 62.941 25.8177 63.6936V71.1986H22.7527V52.1745ZM49.0394 54.8034C53.5333 54.8034 55.9329 58.1522 55.9329 62.2974C55.9329 62.7119 55.8347 63.5627 55.8347 63.5627H44.1748C44.3602 66.9771 46.8361 68.9078 49.683 68.9078C52.4316 68.9078 54.3622 67.0425 54.3622 67.0425L55.6929 69.2242C55.6929 69.2242 53.3151 71.5695 49.5194 71.5695C44.4583 71.5695 41.0116 67.937 41.0116 63.181C41.0116 58.0868 44.4911 54.8034 49.0394 54.8034ZM52.7806 61.3156C52.6825 58.654 51.0137 57.2359 49.0176 57.2359C46.6725 57.2359 44.7747 58.6649 44.3056 61.3156H52.7806ZM69.098 52.2726C69.098 51.7927 68.8472 51.5745 68.4 51.5745H67.0365V48.8583H70.2324C71.6613 48.8583 72.2612 49.4583 72.2612 50.8873V67.7843C72.2612 68.2315 72.512 68.4824 72.9592 68.4824H79.1328C79.58 68.4824 79.8309 68.2315 79.8309 67.7843V66.3553H82.7104V69.1696C82.7104 70.5986 82.1105 71.1986 80.6816 71.1986H71.1159C69.687 71.1986 69.0871 70.5986 69.0871 69.1696V52.2726H69.098ZM85.8626 58.5013C85.8626 58.0322 85.6118 57.8032 85.1646 57.8032H83.8666V55.1742H86.877C88.3059 55.1742 88.9058 55.7742 88.9058 57.2032V67.8715C88.9058 68.3515 89.1567 68.5697 89.6039 68.5697H90.9018V71.1986H87.8914C86.4625 71.1986 85.8626 70.5986 85.8626 69.1696V58.5013ZM85.9281 48.8474H88.6767V52.0436H85.9281V48.8474ZM94.2722 52.1745C94.2722 51.7054 94.0213 51.4763 93.5741 51.4763H92.2762V48.8474H95.3084C96.7373 48.8474 97.3372 49.4474 97.3372 50.8764V56.1015C97.3372 56.865 97.2717 57.4323 97.2717 57.4323H97.3372C97.3372 57.4323 98.7333 54.8034 102.496 54.8034C106.794 54.8034 109.521 58.2177 109.521 63.1919C109.521 68.2861 106.456 71.5804 102.245 71.5804C98.6679 71.5804 97.2172 68.8969 97.2172 68.8969H97.1517C97.1517 68.8969 97.2172 69.3987 97.2172 70.0968V71.2095H94.2722V52.1745ZM101.798 68.9406C104.329 68.9406 106.412 66.8571 106.412 63.2137C106.412 59.7339 104.547 57.4868 101.853 57.4868C99.475 57.4868 97.2608 59.1667 97.2608 63.2464C97.2826 66.0935 98.766 68.9406 101.798 68.9406ZM113.382 58.5013C113.382 58.0322 113.131 57.8032 112.684 57.8032H111.386V55.1742H114.298C115.694 55.1742 116.36 55.7415 116.36 57.0396V58.054C116.36 58.6867 116.294 59.1667 116.294 59.1667H116.36C117.123 56.8214 118.956 54.9888 121.421 54.9888C121.835 54.9888 122.239 55.0543 122.239 55.0543V58.0977C122.239 58.0977 121.824 57.9995 121.322 57.9995C119.359 57.9995 117.559 59.3958 116.829 61.7629C116.545 62.6792 116.447 63.6609 116.447 64.6427V71.1877H113.382V58.5013ZM132.775 61.2175H133.473V61.0538C133.473 58.2395 132.426 57.225 129.928 57.225C129.165 57.225 127.3 57.4105 127.3 58.4577V59.374H124.42V57.7922C124.42 55.1633 128.401 54.7815 129.961 54.7815C135.153 54.7815 136.538 57.4977 136.538 61.0429V67.8497C136.538 68.3297 136.789 68.5479 137.236 68.5479H138.523V71.1768H135.644C134.215 71.1768 133.648 70.4786 133.648 69.3442C133.648 68.8097 133.713 68.3951 133.713 68.3951H133.648C133.648 68.3951 132.382 71.5586 128.554 71.5586C125.805 71.5586 123.111 69.8787 123.111 66.6825C123.122 61.5338 130.081 61.2175 132.775 61.2175ZM129.23 69.1042C131.826 69.1042 133.506 66.3771 133.506 64.01V63.4755H132.71C130.397 63.4755 126.22 63.6064 126.22 66.5407C126.22 67.8388 127.201 69.1042 129.23 69.1042ZM141.85 58.5013C141.85 58.0322 141.599 57.8032 141.152 57.8032H139.854V55.1742H142.766C144.162 55.1742 144.828 55.7415 144.828 57.0396V58.054C144.828 58.6867 144.762 59.1667 144.762 59.1667H144.828C145.591 56.8214 147.424 54.9888 149.889 54.9888C150.303 54.9888 150.707 55.0543 150.707 55.0543V58.0977C150.707 58.0977 150.292 57.9995 149.791 57.9995C147.827 57.9995 146.028 59.3958 145.297 61.7629C145.013 62.6792 144.915 63.6609 144.915 64.6427V71.1877H141.85V58.5013ZM155.572 75.1801C156.804 75.1801 157.786 74.2965 158.386 72.8676L159.116 71.1331L153.641 58.4467C153.423 57.945 153.139 57.8141 152.627 57.8141H152.245V55.1852H154.044C155.342 55.1852 155.811 55.5342 156.324 56.7996L159.967 65.8208C160.283 66.6389 160.534 67.7515 160.534 67.7515H160.6C160.6 67.7515 160.818 66.6498 161.134 65.8208L164.461 56.7996C164.941 55.5342 165.508 55.1852 166.806 55.1852H168.638V57.8141H168.224C167.722 57.8141 167.428 57.945 167.21 58.4467L160.883 74.0784C159.902 76.5437 157.971 77.8418 155.724 77.8418C153.346 77.8418 151.961 76.26 151.961 76.26L153.226 74.0456C153.237 74.0675 154.219 75.1801 155.572 75.1801Z" fill="white"/>
</g>
<g id="Group_2">
<path id="Vector_7" d="M9.64209 26.3546H10.0675C10.6128 26.3546 10.8964 26.2346 11.071 25.6783L17.8335 7.41772H21.0403L27.7919 25.6783C27.9773 26.2237 28.2827 26.3546 28.7954 26.3546H29.2535V28.9835H27.541C26.014 28.9835 25.5232 28.6126 25.0324 27.2163L23.4181 22.7876H15.4775L13.8632 27.2163C13.3397 28.6235 12.8598 28.9835 11.3327 28.9835H9.64209V26.3546ZM22.6546 20.2132L20.2986 13.6464C19.9059 12.5119 19.4478 10.6248 19.4478 10.6248H19.3824C19.3824 10.6248 18.957 12.5228 18.5534 13.6464L16.1974 20.2132H22.6546ZM31.9367 24.642C31.9367 24.642 33.7691 26.9327 36.6051 26.9327C38.0448 26.9327 39.2883 26.2891 39.2883 24.9474C39.2883 22.1658 30.8569 22.4712 30.8569 17.497C30.8569 14.53 33.4528 13.1555 36.5941 13.1555C38.4593 13.1555 41.6661 13.7991 41.6661 16.1444V17.6061H39.0047V16.8425C39.0047 15.9262 37.6303 15.5335 36.6814 15.5335C34.9362 15.5335 33.8128 16.1444 33.8128 17.3661C33.8128 20.3005 42.2441 19.6569 42.2441 24.8165C42.2441 27.5654 39.8009 29.3326 36.5614 29.3326C32.4384 29.3326 30.3879 26.6164 30.3879 26.6164L31.9367 24.642ZM45.9308 10.6248C45.9308 10.1666 45.6909 9.94846 45.2546 9.94846H44.0002V7.41772H46.9343C48.3086 7.41772 48.8867 7.81042 48.8867 9.18487V19.1987H50.2611C50.8064 19.1987 51.4827 19.046 51.8753 18.5224L55.4529 13.5155H58.8451L54.6567 19.2533C53.9586 20.2023 53.5005 20.4095 53.5005 20.4095V20.475C53.5005 20.475 54.0241 20.6604 54.5367 21.6313L56.8273 25.8201C57.0672 26.3109 57.3726 26.4309 58.1362 26.4309H59.0851V28.9617H56.9473C55.5075 28.9617 55.0494 28.7217 54.384 27.5218L51.5699 22.3294C51.2318 21.7513 50.5337 21.6858 50.0429 21.6858H48.8867V28.9508H45.9199V10.6248H45.9308Z" fill="white"/>
</g>
</g>
<defs>
<clipPath id="clip0_571_1651">
<rect width="176.699" height="104" fill="white"/>
</clipPath>
</defs>
</svg>
