<svg xmlns="http://www.w3.org/2000/svg" width="20" height="20" viewBox="0 0 20 20"><symbol viewBox="0 -12 10 12"><g><path fill="#DB2B27" d="M5-5.134c-2.031 0-5-1.879-5-6.033v-.833h10v.832c0 4.153-2.969 6.034-5 6.034zM7.5-4l-.5-1h-4l-.5 1h-.5v2.312l.5.469 1.5 1.219h2l1.5-1.219.5-.469v-2.312z"/></g></symbol><g><path fill="#DC291E" d="M16.608 14.892c-.35 0-.697-.146-.944-.43l-5.314-6.12-5.303 6.108c-.453.521-1.243.577-1.763.124-.521-.453-.577-1.242-.125-1.763l6.247-7.195c.474-.547 1.413-.548 1.888 0l6.258 7.206c.453.521.397 1.311-.124 1.763-.237.206-.529.307-.82.307z"/></g></svg>