<svg width="84" height="31" viewBox="0 0 84 31" fill="none" xmlns="http://www.w3.org/2000/svg">
<path d="M9.97081 0.612915H7.42167V2.74908H3.18878V7.1962H0V13.7309H3.18878V18.1878H7.43108V20.3142H9.67921C14.928 20.3142 19.5466 15.9448 19.5466 10.4878C19.5466 5.0309 15.229 0.612915 9.97081 0.612915Z" fill="white"/>
<path d="M66.5034 2.49661H68.7045V1.66156H61.0289V2.49661H63.2488V18.4305H61.0289V19.2558H68.7045V18.4305H66.5034V2.49661Z" fill="white"/>
<path d="M80.472 19.2558V18.4305H78.1204V2.32183C81.7136 2.13734 82.3251 2.93355 82.786 6.30287H83.5761L83.2939 1.66156H69.6358L69.3536 6.30287H70.1625C70.6235 2.93355 71.2349 2.13734 74.8375 2.32183V18.4305H72.4859V19.2558H80.472Z" fill="white"/>
<path d="M29.0188 9.20612V2.4869H31.2388C33.5151 2.4869 34.3523 3.0792 34.3523 6.0407C34.3523 8.4002 33.4116 9.20612 31.1071 9.20612H29.0188ZM59.5709 2.4869V1.66156H53.278L49.5813 13.7018L46.0162 1.66156H39.7516V2.4869H41.9527V18.4305H39.5728C37.3623 18.4887 37.3247 16.5371 37.3341 16.139C37.3623 11.8472 36.4405 10.2839 32.4522 9.65277V9.59451C34.832 9.33235 37.8703 8.63324 37.8703 5.66202C37.8703 2.0014 34.5592 1.66156 31.7655 1.66156H23.5443V2.4869H25.7454V18.4305H23.5443V19.2558H31.2105V18.4305H29.0094V10.0217C30.4204 9.96349 32.0195 10.3325 32.7344 10.9733C33.4022 11.5559 33.7597 13.3619 33.7597 15.5369C33.7597 18.2266 35.1048 19.2461 37.6916 19.2461H45.085V18.4208H42.9309V2.75877H42.9874L48.0668 19.2558H48.9322L54.0305 2.75877H54.1058V18.4305H51.9141V19.2558H59.5709V18.4305H57.3698V2.4869H59.5709Z" fill="white"/>
<path d="M25.7454 24.5865C25.7454 24.4409 25.6702 24.3729 25.5385 24.3729H25.134V23.5282H26.0934C26.5167 23.5282 26.6954 23.7126 26.6954 24.1593V27.9753C26.6954 29.0142 27.3257 29.6259 28.2945 29.6259C29.2634 29.6259 29.8936 29.0045 29.8936 27.9656V24.1496C29.8936 23.7126 30.0818 23.5184 30.5051 23.5184H31.4551V24.3632H31.0506C30.9189 24.3632 30.8437 24.4312 30.8437 24.5768V28.0044C30.8437 29.5094 29.8278 30.5387 28.304 30.5387C26.7801 30.5387 25.7454 29.5094 25.7454 28.0044V24.5768V24.5865Z" fill="white"/>
<path d="M32.0947 29.5871H32.4992C32.6309 29.5871 32.7062 29.5094 32.7062 29.3735V23.5282H33.5715L36.544 27.8976C36.7885 28.2666 37.099 28.8394 37.099 28.8394H37.1178C37.1178 28.8394 37.0519 28.2957 37.0519 27.8976V24.1593C37.0519 23.7223 37.2306 23.5379 37.6633 23.5379H38.6134V24.3729H38.2089C38.0772 24.3729 38.002 24.4409 38.002 24.5865V30.4319H37.146L34.1641 26.0624C33.9196 25.6934 33.6186 25.1206 33.6186 25.1206H33.5998C33.5998 25.1206 33.6562 25.674 33.6562 26.0624V29.8007C33.6562 30.2377 33.4775 30.4221 33.0542 30.4221H32.0947V29.5774V29.5871Z" fill="white"/>
<path d="M39.6481 29.5871H40.2971V24.3729H39.6481V23.5282H41.8586V24.3729H41.2001V29.5871H41.8586V30.4319H39.6481V29.5871Z" fill="white"/>
<path d="M42.8839 24.5865C42.8275 24.4117 42.7334 24.3729 42.5735 24.3729H42.4418V23.5282H42.9686C43.4389 23.5282 43.6082 23.635 43.7493 24.0913L45.2167 28.3442C45.339 28.7132 45.4707 29.2958 45.4707 29.2958H45.4895C45.4895 29.2958 45.6118 28.7229 45.7435 28.3442L47.2109 24.0913C47.3708 23.635 47.5213 23.5282 47.9916 23.5282H48.5184V24.3729H48.3867C48.2173 24.3729 48.1327 24.4117 48.0762 24.5865L45.9692 30.4319H44.9721L42.8651 24.5865H42.8839Z" fill="white"/>
<path d="M49.7036 24.3729H49.0921V23.5379H53.024C53.4473 23.5379 53.626 23.7224 53.626 24.1593V25.0332H52.7607V24.5962C52.7607 24.4506 52.6854 24.3826 52.5537 24.3826H50.6536V26.5479H52.9958V27.383H50.6536V29.3832C50.6536 29.5191 50.7289 29.5968 50.8606 29.5968H52.8077C52.9394 29.5968 53.0146 29.5191 53.0146 29.3832V28.9463H53.8894V29.8201C53.8894 30.2571 53.7107 30.4416 53.2874 30.4416H50.315C49.8917 30.4416 49.713 30.2571 49.713 29.8201V24.3826L49.7036 24.3729Z" fill="white"/>
<path d="M55.2157 24.3729H54.6043V23.5379H57.5203C58.6961 23.5379 59.5145 24.2952 59.5145 25.5575C59.5145 26.713 58.7808 27.2762 58.3104 27.383V27.4024C58.3104 27.4024 58.4797 27.4898 58.5926 27.7131L59.4016 29.3638C59.4956 29.5677 59.6461 29.5871 59.8719 29.5871H59.9942V30.4221H59.5239C59.0065 30.4221 58.8184 30.3542 58.5926 29.9075L57.6802 28.0529C57.5109 27.7325 57.3886 27.684 57.0123 27.684H56.1375V30.4319H55.1875V24.3729H55.2157ZM57.398 26.8489C58.1129 26.8489 58.5456 26.3731 58.5456 25.5964C58.5456 24.8196 58.1223 24.3729 57.4168 24.3729H56.1658V26.8489H57.398Z" fill="white"/>
<path d="M61.2076 28.8297C61.2076 28.8297 61.8849 29.6648 62.882 29.6648C63.5122 29.6648 64.0296 29.2764 64.0296 28.6355C64.0296 27.1888 60.8031 27.4121 60.8031 25.2662C60.8031 24.2273 61.6874 23.4213 62.9478 23.4213C63.6627 23.4213 64.8479 23.7515 64.8479 24.6933V25.2565H63.9731V24.9361C63.9731 24.5768 63.4746 24.3049 62.9384 24.3049C62.2141 24.3049 61.7626 24.7128 61.7626 25.2371C61.7626 26.6353 64.9796 26.3246 64.9796 28.587C64.9796 29.6454 64.1801 30.5484 62.8632 30.5484C61.4428 30.5484 60.6527 29.5191 60.6527 29.5191L61.2076 28.82V28.8297Z" fill="white"/>
<path d="M65.9861 29.5871H66.6351V24.3729H65.9861V23.5282H68.1872V24.3729H67.5381V29.5871H68.1872V30.4319H65.9861V29.5871Z" fill="white"/>
<path d="M71.1973 24.3729H69.8521C69.7204 24.3729 69.6452 24.4409 69.6452 24.5865V25.0235H68.7986V24.1107C68.7986 23.6738 68.9397 23.5282 69.363 23.5282H73.9627C74.386 23.5282 74.5271 23.6738 74.5271 24.1107V25.0235H73.69V24.5865C73.69 24.4409 73.6147 24.3729 73.483 24.3729H72.1379V30.4319H71.1879V24.3729H71.1973Z" fill="white"/>
<path d="M77.2456 27.4218L75.5524 24.6157C75.4301 24.4117 75.3455 24.3729 75.1479 24.3729H74.9598V23.5379H75.3925C75.844 23.5379 76.0321 23.6058 76.2955 24.0622L77.3114 25.8003C77.5278 26.1789 77.7159 26.577 77.7159 26.577H77.7347C77.7347 26.577 77.9134 26.1887 78.1392 25.8003L79.1457 24.0622C79.409 23.6058 79.5972 23.5379 80.0393 23.5379H80.472V24.3729H80.2933C80.0957 24.3729 80.0016 24.4117 79.8794 24.6157L78.1956 27.4218V30.4319H77.2456V27.4218Z" fill="white"/>
</svg>
